<?xml version="1.0" standalone="no"?>
<!DOCTYPE svg PUBLIC "-//W3C//DTD SVG 20010904//EN"
 "http://www.w3.org/TR/2001/REC-SVG-20010904/DTD/svg10.dtd">
<svg version="1.0" xmlns="http://www.w3.org/2000/svg"
 width="500.000000pt" height="500.000000pt" viewBox="0 0 500.000000 500.000000"
 preserveAspectRatio="xMidYMid meet">

<g transform="translate(0.000000,500.000000) scale(0.100000,-0.100000)"
fill="#000000" stroke="none">
<path d="M2681 4616 c2 -2 15 -9 29 -15 24 -11 24 -11 6 3 -16 13 -49 24 -35
12z"/>
<path d="M2763 4574 c16 -9 25 -20 21 -26 -5 -7 -2 -9 8 -5 14 5 14 1 5 -29
-8 -27 -8 -37 2 -43 7 -5 14 -16 15 -26 2 -13 31 -31 91 -57 100 -43 102 -43
102 -23 0 8 -4 15 -8 15 -5 0 -6 6 -3 13 2 7 -7 26 -21 41 -27 30 -32 46 -12
47 6 0 -39 25 -102 55 -107 51 -159 71 -98 38z"/>
<path d="M2495 4531 c-6 -5 -73 -41 -150 -79 -453 -224 -943 -382 -1405 -452
-144 -22 -187 -24 -115 -4 l50 13 -45 -4 c-25 -2 -71 -7 -102 -11 l-58 -6 2
-237 c2 -222 3 -227 8 -86 3 92 7 -78 11 -435 7 -612 10 -653 59 -900 98 -491
333 -903 738 -1294 45 -43 79 -82 77 -87 -3 -4 0 -11 6 -15 8 -4 9 -3 5 4 -4
7 -3 12 3 12 5 0 13 -4 16 -10 3 -5 1 -10 -6 -10 -8 0 -7 -5 2 -17 8 -10 -6
-2 -31 16 -71 54 -300 287 -373 381 -37 47 -73 85 -79 85 -6 0 -12 10 -13 22
-1 13 -5 26 -10 30 -4 5 -5 0 -2 -10 4 -9 2 -17 -3 -17 -6 0 -10 4 -10 9 0 14
-50 0 -51 -15 -2 -23 -4 -28 -13 -43 -6 -10 -5 -12 2 -7 7 4 12 1 12 -9 0 -9
4 -13 10 -10 6 3 7 -1 4 -9 -3 -8 4 -29 15 -45 12 -16 21 -35 21 -43 0 -38
223 -276 437 -465 211 -186 614 -454 894 -593 l106 -53 139 73 c77 40 178 97
227 126 125 76 131 79 124 61 -3 -8 32 8 78 36 46 29 81 55 79 59 -5 8 -44
-11 -56 -27 -13 -18 -76 -7 -110 18 -40 31 -90 28 -153 -8 -110 -62 -316 -165
-330 -165 -37 0 -384 199 -565 323 -118 81 -243 185 -289 240 -31 37 -32 39
-5 16 145 -129 488 -354 758 -499 l99 -53 96 48 c177 87 380 210 546 329 575
412 939 914 1091 1502 72 277 87 505 82 1219 l-3 529 -151 23 c-515 77 -1180
292 -1577 510 -88 49 -80 46 -92 34z m113 -245 c384 -193 1081 -412 1468 -461
l51 -6 6 -217 c17 -545 -2 -1030 -49 -1261 -61 -306 -197 -600 -402 -873 -80
-106 -250 -290 -316 -340 -22 -17 11 22 74 88 64 65 124 130 134 144 11 14
-30 -25 -90 -87 -165 -169 -329 -301 -604 -487 -166 -113 -190 -133 -105 -87
91 48 24 0 -87 -64 -103 -58 -139 -73 -73 -28 22 14 42 27 44 29 2 2 0 11 -4
21 -5 10 -9 23 -9 28 -1 6 -14 10 -29 10 -26 -1 -27 1 -29 60 -1 42 -3 49 -5
23 -7 -62 -53 -39 -53 26 0 29 -14 34 -28 10 -17 -30 -25 5 -30 133 -3 67 -8
123 -12 123 -4 0 -12 -19 -17 -43 l-11 -42 -2 35 c-2 39 -27 124 -29 98 -1 -9
-6 -20 -13 -24 -8 -5 -9 0 -6 14 4 12 3 22 -1 22 -11 0 -31 -46 -32 -73 -2
-36 -16 30 -19 88 l-2 50 -14 -46 c-12 -38 -20 -48 -42 -52 -15 -3 -28 -4 -29
-3 -1 1 -3 32 -4 69 -1 37 -6 67 -10 67 -5 0 -9 -10 -9 -22 -1 -64 -28 -89
-51 -46 -8 15 -14 18 -17 10 -7 -23 -32 8 -33 42 l-1 31 -11 -26 -10 -27 -28
29 c-22 22 -38 29 -68 29 l-39 0 -8 82 c-4 46 -10 73 -12 61 -4 -24 -32 -21
-32 3 0 8 -4 14 -10 14 -5 0 -10 7 -10 15 0 9 -9 15 -24 15 -22 0 -26 6 -32
47 l-7 48 -14 -43 c-15 -43 -32 -48 -34 -9 -1 17 -2 18 -6 5 -6 -26 -33 -22
-33 4 0 20 -1 20 -19 4 -19 -18 -20 -17 -30 15 -9 31 -10 32 -16 12 -11 -33
-22 -28 -33 14 -7 26 -10 31 -11 16 -2 -35 -29 -28 -40 10 l-9 32 -2 -35 -2
-35 -13 30 c-12 27 -14 28 -21 11 -7 -19 -8 -19 -15 0 -4 10 -8 38 -8 62 -1
23 -5 42 -11 42 -5 0 -10 -19 -11 -42 -1 -37 -2 -39 -9 -18 -4 14 -8 39 -9 56
-1 38 -30 56 -38 24 -7 -25 -38 -11 -47 22 -3 13 -15 34 -26 48 -16 21 -20 22
-20 7 0 -19 -64 41 -138 129 -28 33 -38 34 -34 3 1 -4 -7 -5 -18 -2 -11 3 -18
9 -15 13 3 5 0 20 -6 34 -9 19 -15 23 -25 16 -8 -8 -14 -7 -18 2 -3 7 -3 2 0
-12 8 -33 114 -255 146 -305 14 -22 29 -51 33 -65 4 -14 20 -41 34 -60 14 -19
18 -29 9 -22 -33 26 -135 192 -213 347 -162 321 -218 573 -234 1056 -9 268 -3
909 8 909 29 1 289 45 376 65 345 77 804 238 1103 385 75 38 143 69 150 69 7
1 52 -19 100 -43z m-1865 -313 c-7 -2 -19 -2 -25 0 -7 3 -2 5 12 5 14 0 19 -2
13 -5z m659 -2578 c6 -11 -4 -4 -21 15 -17 19 -36 44 -42 55 -5 11 4 4 21 -15
17 -19 36 -44 42 -55z m842 -676 c69 -44 163 -100 208 -124 66 -35 79 -45 63
-51 -22 -9 -112 36 -260 128 -126 79 -166 109 -159 120 9 15 20 9 148 -73z
m326 -143 c0 -2 -7 -7 -16 -10 -8 -3 -12 -2 -9 4 6 10 25 14 25 6z"/>
<path d="M3065 4029 c10 -32 15 -36 24 -20 6 8 14 -15 24 -65 12 -67 15 -73
16 -37 2 70 18 63 45 -20 3 -10 10 -16 14 -13 5 3 15 -14 23 -37 7 -23 18 -45
24 -49 6 -5 4 -8 -4 -8 -12 0 -12 -3 -3 -12 16 -16 32 5 32 45 0 38 20 34 21
-5 1 -18 5 -44 9 -58 6 -19 8 -13 9 30 3 122 31 81 31 -45 0 -43 5 -66 15 -75
12 -10 16 -8 23 11 l9 24 7 -23 c4 -12 12 -22 17 -22 6 0 8 4 4 9 -3 5 -1 12
5 16 5 3 10 21 11 38 l1 32 10 -35 c5 -19 13 -39 18 -45 4 -5 10 -24 13 -42 9
-55 37 -77 37 -28 0 16 6 25 15 25 8 0 15 5 15 10 0 6 9 10 20 10 21 0 40 -27
40 -59 0 -15 5 -19 21 -16 12 3 24 6 26 9 3 2 18 0 35 -6 24 -8 32 -8 39 3 6
10 9 4 9 -18 0 -17 5 -35 10 -38 6 -3 10 -1 10 6 0 7 3 9 7 5 4 -3 13 4 19 16
l13 23 9 -24 9 -24 15 22 16 23 7 -21 c3 -12 10 -19 15 -16 15 9 70 -26 70
-46 0 -10 5 -19 10 -19 6 0 10 24 10 54 0 29 3 68 7 87 5 28 7 30 14 14 4 -11
8 -41 8 -67 1 -36 5 -48 16 -48 8 0 15 4 15 10 0 5 7 7 15 4 9 -4 15 0 15 8 0
8 6 22 13 31 11 16 12 15 13 -5 5 -70 10 -88 26 -88 15 0 17 17 17 159 1 145
0 160 -16 164 -10 3 -74 15 -143 27 -162 29 -511 118 -668 170 -68 22 -128 38
-134 34 -6 -4 -8 -3 -5 3 4 6 -4 14 -17 17 -13 3 -32 9 -41 12 -14 6 -16 3
-10 -17z"/>
<path d="M2288 3792 l-298 -2 0 -375 0 -375 -375 0 -375 0 0 -507 0 -506 375
7 375 7 0 -380 0 -381 510 0 510 0 0 382 0 381 375 -6 375 -7 -2 508 -3 507
-112 3 -113 3 0 27 c0 51 -41 186 -75 247 -82 147 -231 264 -402 315 l-43 13
0 74 0 74 -212 -3 c-117 -2 -347 -4 -510 -6z m694 -223 c29 -6 94 -31 145 -55
241 -118 372 -390 308 -639 -18 -71 -80 -205 -129 -278 -68 -102 -209 -222
-336 -286 -59 -30 -146 -60 -247 -86 -34 -8 -69 -18 -78 -21 -12 -5 -15 5 -15
60 l0 65 43 11 c23 6 76 23 117 38 41 15 84 26 95 25 11 -1 14 1 7 4 -8 3 15
21 54 44 240 140 374 348 375 579 1 281 -274 487 -554 414 -112 -29 -174 -78
-237 -187 -35 -60 -38 -63 -125 -101 -50 -21 -103 -39 -119 -41 -15 -1 -32 -8
-37 -16 -5 -9 -11 -10 -18 -4 -21 22 44 204 94 263 41 48 138 109 186 118 19
4 52 17 74 30 39 22 146 59 195 67 51 9 151 7 202 -4z m76 -238 c49 -25 129
-111 152 -164 10 -23 20 -60 22 -82 l3 -40 -112 -3 -113 -3 0 156 c0 85 2 155
5 155 3 0 23 -9 43 -19z m102 -416 c0 -1 -9 -28 -20 -59 -44 -128 -123 -227
-251 -312 -85 -56 -143 -82 -244 -109 l-80 -22 -3 -195 -2 -196 -23 5 c-12 3
-39 9 -59 14 l-38 10 -2 187 -3 187 -28 3 c-15 2 -25 7 -23 11 3 4 -15 8 -39
8 -33 0 -70 13 -150 52 -161 80 -278 204 -333 352 -11 31 -19 59 -16 61 4 5
1314 8 1314 3z m-790 -668 c0 -51 -2 -54 -35 -70 -46 -22 -69 -58 -60 -96 13
-58 74 -87 256 -120 61 -11 127 -30 158 -45 143 -73 127 -241 -29 -286 -60
-17 -84 17 -31 45 36 18 61 52 61 80 0 40 -39 63 -135 80 -106 18 -195 42
-195 53 0 5 -16 14 -36 21 -19 7 -56 33 -81 58 -25 25 -40 36 -33 23 17 -32 4
-36 -16 -4 -25 37 -31 141 -11 181 25 47 77 91 131 112 28 11 52 20 54 20 1 1
2 -23 2 -52z m178 -481 c1 -2 5 -50 8 -107 9 -161 10 -163 107 -195 94 -30
207 -83 207 -95 0 -10 -264 -10 -550 0 l-185 6 40 21 c22 12 79 34 127 49 128
40 132 46 137 207 l3 130 51 -7 c29 -3 53 -8 55 -9z m-193 -182 c-54 -44 -71
-47 -27 -4 24 23 46 39 50 35 4 -4 -6 -18 -23 -31z"/>
<path d="M2351 3314 c-26 -34 -27 -54 -1 -54 45 0 79 70 39 78 -9 2 -26 -9
-38 -24z"/>
<path d="M2967 2817 c-42 -81 -129 -180 -218 -247 -88 -66 -86 -75 6 -31 80
38 150 92 208 160 45 53 106 147 107 164 0 4 -17 7 -37 7 -36 0 -40 -3 -66
-53z"/>
<path d="M3880 3489 c0 -5 5 -7 10 -4 6 3 10 8 10 11 0 2 -4 4 -10 4 -5 0 -10
-5 -10 -11z"/>
<path d="M4070 3429 c0 -5 5 -7 10 -4 6 3 10 8 10 11 0 2 -4 4 -10 4 -5 0 -10
-5 -10 -11z"/>
<path d="M2686 655 c-11 -8 -15 -15 -9 -15 6 0 16 7 23 15 16 19 11 19 -14 0z"/>
<path d="M2990 4470 c8 -5 20 -10 25 -10 6 0 3 5 -5 10 -8 5 -19 10 -25 10 -5
0 -3 -5 5 -10z"/>
<path d="M1138 4053 c7 -3 16 -2 19 1 4 3 -2 6 -13 5 -11 0 -14 -3 -6 -6z"/>
<path d="M1088 4043 c6 -2 18 -2 25 0 6 3 1 5 -13 5 -14 0 -19 -2 -12 -5z"/>
<path d="M1028 4033 c6 -2 18 -2 25 0 6 3 1 5 -13 5 -14 0 -19 -2 -12 -5z"/>
<path d="M968 4023 c7 -3 16 -2 19 1 4 3 -2 6 -13 5 -11 0 -14 -3 -6 -6z"/>
<path d="M893 4013 c9 -2 23 -2 30 0 6 3 -1 5 -18 5 -16 0 -22 -2 -12 -5z"/>
<path d="M4333 3505 c0 -22 2 -30 4 -17 2 12 2 30 0 40 -3 9 -5 -1 -4 -23z"/>
<path d="M4424 2454 c-3 -25 -9 -42 -13 -38 -6 9 -18 13 -63 21 -25 4 -26 2
-38 -67 -7 -39 -9 -74 -6 -77 3 -4 6 1 6 10 0 10 5 17 11 17 6 0 9 -7 5 -15
-3 -8 -1 -15 4 -15 5 0 7 -8 5 -18 -2 -10 1 -25 6 -33 6 -9 9 -10 9 -2 0 7 7
10 15 7 11 -5 13 -17 9 -52 -9 -78 12 -27 35 86 23 113 37 222 28 222 -3 0 -9
-21 -13 -46z"/>
<path d="M4246 1693 c-6 -14 -5 -15 5 -6 7 7 10 15 7 18 -3 3 -9 -2 -12 -12z"/>
<path d="M4096 1469 c-126 -196 -238 -332 -425 -520 -102 -102 -230 -220 -283
-263 -54 -42 -98 -82 -98 -89 0 -8 3 -8 9 1 4 7 14 14 22 16 37 6 190 125 184
143 -2 6 4 17 13 25 15 12 16 11 3 -4 -23 -30 3 -20 34 12 16 17 25 30 20 30
-12 0 46 59 70 72 13 7 7 -4 -15 -28 -19 -22 -9 -15 22 15 31 30 54 59 51 64
-3 6 -2 7 4 4 9 -6 78 60 133 128 14 17 -3 1 -38 -35 -35 -36 -58 -55 -53 -44
16 34 112 135 122 129 4 -3 36 29 70 72 73 92 190 264 166 244 -22 -18 -22 -6
2 27 20 30 53 92 48 92 -2 0 -29 -41 -61 -91z m-61 -131 c-73 -106 -156 -210
-162 -204 -3 2 22 37 54 78 32 40 80 106 107 146 27 39 51 70 54 68 2 -3 -22
-42 -53 -88z"/>
<path d="M3349 843 c-13 -16 -12 -17 4 -4 16 13 21 21 13 21 -2 0 -10 -8 -17
-17z"/>
<path d="M3220 749 c-22 -18 -22 -19 -3 -10 12 6 25 16 28 21 9 15 3 12 -25
-11z"/>
</g>
</svg>
